# xmcd CD database file
#
# Track frame offsets:
#	150
#	30789
#	61456
#	77586
#	113362
#	142230
#	172511
#	189701
#	221138
#	244842
#	269733
#	295488
#
# Disc length: 4261 seconds
#
# Revision: 2
# Processed by: cddbd v1.4PL0 Copyright (c) Steve Scherf et al.
# Submitted via: CDex 1.40Beta9
#
DISCID=ad10a30c
DTITLE=Government Mule - Dose
DYEAR=1985
DGENRE=Rock
TTITLE0=Blind Man In The Dark
TTITLE1=Thorazine Shuffle
TTITLE2=Thelonius Beck
TTITLE3=Game Face
TTITLE4=Towering Fool
TTITLE5=Birth Of The Mule
TTITLE6=John The Revelator
TTITLE7=She Said She Said
TTITLE8=Larger Than Life
TTITLE9=Raven Black Night
TTITLE10=I Shall Return
TTITLE11=I Put A Spell On You ( Japanese Bonus Track )
EXTD=YEAR: 1985 ID3G: 17
EXTT0=
EXTT1=
EXTT2=
EXTT3=
EXTT4=
EXTT5=
EXTT6=
EXTT7=
EXTT8=
EXTT9=
EXTT10=
EXTT11=
PLAYORDER=
